<svg width="20" height="20" viewBox="0 0 20 20" fill="none" xmlns="http://www.w3.org/2000/svg"><path d="M8.33329 1.6665H11.6666C12.1087 1.6665 12.5326 1.8421 12.8451 2.15466C13.1577 2.46722 13.3333 2.89114 13.3333 3.33317V4.99984H16.6666C17.1087 4.99984 17.5326 5.17543 17.8451 5.48799C18.1577 5.80055 18.3333 6.22448 18.3333 6.6665V10.8582C17.9166 10.1915 17.3333 9.6165 16.6666 9.1665V6.6665H3.33329V15.8332H8.74996C9.00829 16.4582 9.38329 17.0165 9.84163 17.4998H3.33329C2.89127 17.4998 2.46734 17.3242 2.15478 17.0117C1.84222 16.6991 1.66663 16.2752 1.66663 15.8332V6.6665C1.66663 5.7415 2.40829 4.99984 3.33329 4.99984H6.66663V3.33317C6.66663 2.40817 7.40829 1.6665 8.33329 1.6665ZM11.6666 4.99984V3.33317H8.33329V4.99984H11.6666ZM16.925 15.7498L19.4916 18.3332L18.3333 19.4915L15.7333 16.9332C15.1583 17.2915 14.475 17.4998 13.75 17.4998C11.6666 17.4998 9.99996 15.8332 9.99996 13.7498C9.99996 11.6665 11.6666 9.99984 13.75 9.99984C15.8333 9.99984 17.5 11.6665 17.5 13.7498C17.5 14.4832 17.2916 15.1748 16.925 15.7498ZM13.75 15.8332C14.3025 15.8332 14.8324 15.6137 15.2231 15.223C15.6138 14.8323 15.8333 14.3024 15.8333 13.7498C15.8333 13.1973 15.6138 12.6674 15.2231 12.2767C14.8324 11.886 14.3025 11.6665 13.75 11.6665C13.1974 11.6665 12.6675 11.886 12.2768 12.2767C11.8861 12.6674 11.6666 13.1973 11.6666 13.7498C11.6666 14.3024 11.8861 14.8323 12.2768 15.223C12.6675 15.6137 13.1974 15.8332 13.75 15.8332Z" fill="#767676"></path></svg>