<svg width="20" height="20" viewBox="0 0 20 20" fill="none" xmlns="http://www.w3.org/2000/svg"><path fill-rule="evenodd" clip-rule="evenodd" d="M8.92038 2.93183C8.36176 2.93183 7.88652 3.32002 7.75312 3.84322H12.2387C12.1053 3.32002 11.6301 2.93183 11.0715 2.93183H8.92038ZM13.506 3.84322H15.1568C16.9077 3.84322 18.3334 5.28625 18.3334 7.05839C18.3334 7.05839 18.2834 7.8086 18.2667 8.85332C18.265 8.93602 18.225 9.01703 18.1592 9.06598C17.7581 9.36218 17.3913 9.6069 17.3579 9.62378C15.9739 10.552 14.3656 11.2052 12.6522 11.5301C12.5405 11.552 12.4305 11.4938 12.3738 11.3942C11.8935 10.5622 10.9964 10.0204 9.99591 10.0204C9.00208 10.0204 8.09663 10.5563 7.60222 11.3892C7.54469 11.4871 7.4363 11.5436 7.32541 11.5225C5.62623 11.1968 4.01792 10.5445 2.64224 9.63222L1.84184 9.07526C1.77514 9.03307 1.73345 8.95712 1.73345 8.87273C1.70844 8.44235 1.66675 7.05839 1.66675 7.05839C1.66675 5.28625 3.09246 3.84322 4.84334 3.84322H6.48582C6.64424 2.6196 7.66975 1.66602 8.92038 1.66602H11.0715C12.3221 1.66602 13.3476 2.6196 13.506 3.84322ZM18.0499 10.6787L18.0166 10.6956C16.3324 11.8264 14.3064 12.5774 12.1803 12.8897C11.8802 12.9319 11.58 12.7378 11.4967 12.434C11.3132 11.742 10.7213 11.2863 10.0126 11.2863H10.0042H9.98757C9.27889 11.2863 8.68692 11.742 8.5035 12.434C8.42012 12.7378 8.11997 12.9319 7.81982 12.8897C5.69376 12.5774 3.66775 11.8264 1.98357 10.6956C1.97524 10.6872 1.89186 10.6365 1.82516 10.6787C1.75012 10.7209 1.75012 10.8222 1.75012 10.8222L1.80849 15.1259C1.80849 16.8981 3.22586 18.3327 4.97674 18.3327H15.0151C16.766 18.3327 18.1833 16.8981 18.1833 15.1259L18.25 10.8222C18.25 10.8222 18.25 10.7209 18.175 10.6787C18.1333 10.6534 18.0833 10.6618 18.0499 10.6787ZM10.6212 14.2146C10.6212 14.569 10.3461 14.8475 9.99591 14.8475C9.65407 14.8475 9.3706 14.569 9.3706 14.2146V13.126C9.3706 12.78 9.65407 12.493 9.99591 12.493C10.3461 12.493 10.6212 12.78 10.6212 13.126V14.2146Z" fill="#6913D8"></path></svg>