<svg width="20" height="20" viewBox="0 0 20 20" fill="none" xmlns="http://www.w3.org/2000/svg"><path d="M17.9949 10.0251C18.631 10.2151 19.3065 10.1432 19.8942 9.8279C19.9295 10.4412 19.8033 11.0536 19.5296 11.5916C19.2327 12.1751 18.7777 12.6411 18.2293 12.9263L18.1755 12.9543L18.1754 13.015L18.1746 18.9H12.3287V17.1111C12.3287 17.1111 12.3287 17.1111 12.3287 17.1111C12.3289 16.6119 12.1565 16.1297 11.8442 15.7615C11.5317 15.393 11.1016 15.1653 10.6391 15.1273L10.6391 15.1272L10.6345 15.127L10.505 15.1223L10.505 15.1222L10.5014 15.1222C10.0375 15.1221 9.59247 15.3137 9.25505 15.6559C8.91787 15.9978 8.71276 16.4647 8.67851 16.9626L8.67844 16.9626L8.67833 16.9664L8.67401 17.1081L8.67396 17.1081V17.1111V18.9H2.82811V13.016V12.9552L2.77413 12.9272C2.22465 12.6424 1.76863 12.1762 1.47114 11.5921C1.19678 11.0535 1.07033 10.4403 1.10586 9.82615C1.69348 10.1421 2.3693 10.2146 3.00576 10.0249C3.67455 9.82564 4.24421 9.35366 4.59977 8.71111H16.402C16.7573 9.35346 17.3265 9.82547 17.9949 10.0251ZM15.6977 10.4335L15.6679 10.4H15.623H5.37878H5.33357L5.3037 10.4339L5.23913 10.5073C4.87564 10.8944 4.45115 11.2074 3.98773 11.4302L3.90618 11.4664L3.71637 11.5507L3.90066 11.6465L4.35548 11.8829L4.35463 17.1111L4.35461 17.2111L4.45467 17.2111L7.04747 17.2102L7.14744 17.2101V17.1102V17.0442L7.15594 16.837C7.28215 14.9785 8.65477 13.5301 10.3887 13.4389L10.5633 13.4343L10.7505 13.4435C11.5626 13.5098 12.3266 13.898 12.8983 14.5381C13.4703 15.1784 13.81 16.0265 13.8518 16.9236L13.8553 17.112L13.8571 17.2101L13.9552 17.2102L16.5472 17.2111L16.6472 17.2111L16.6472 17.1111L16.6481 11.8829L17.1013 11.6464L17.282 11.5522L17.0969 11.4669L17.0162 11.4298C17.016 11.4297 17.0157 11.4296 17.0155 11.4295C16.5513 11.2071 16.1271 10.8948 15.7633 10.5071L15.6977 10.4335ZM5.31919 7.56667H5.31917C4.5987 7.56679 3.90213 7.27491 3.36448 6.74473C2.86016 6.24743 2.52947 5.57358 2.42847 4.83916C2.81413 4.94044 3.21452 4.96082 3.60817 4.89856C4.05211 4.82834 4.47652 4.65476 4.85276 4.39011C5.22895 4.12548 5.5481 3.77608 5.78909 3.36601C6.01554 2.9807 6.16815 2.55006 6.23842 2.1H14.7643C14.8345 2.55006 14.9872 2.9807 15.2136 3.36601C15.4546 3.77608 15.7737 4.12548 16.1499 4.39011C16.5262 4.65476 16.9506 4.82834 17.3945 4.89856C17.7882 4.96082 18.1886 4.94044 18.5742 4.83916C18.4774 5.54382 18.1689 6.19362 17.6972 6.68517C17.1933 7.21024 16.5364 7.5202 15.8449 7.56203L15.6821 7.56667H5.31919ZM13.7002 3.84432L13.6726 3.78889H13.6106H7.39119H7.32752L7.30058 3.84657C6.99538 4.50005 6.56526 5.07319 6.04007 5.52732L5.82709 5.70012L5.60811 5.87778H5.89009H15.1117H15.4187L15.1707 5.69697L15.1614 5.69025C14.6183 5.27015 14.163 4.72743 13.8265 4.09804L13.7002 3.84432Z" fill="#767676" stroke="white" stroke-width="0.2"></path></svg>